/* XPM */
static const char *rme_icon[] = {
/* columns rows colors chars-per-pixel */
"48 48 103 2 ",
"   c None",
".  c black",
"X  c #010101",
"o  c #010201",
"O  c #010202",
"+  c #020202",
"@  c #040000",
"#  c #030304",
"$  c #050606",
"%  c #080101",
"&  c #050B04",
"*  c #06090B",
"=  c #070A0C",
"-  c gray4",
";  c #0A0C0E",
":  c #0A0E0F",
">  c #170605",
",  c #1E0907",
"<  c #0A1308",
"1  c #0D1A0A",
"2  c #0D1D0A",
"3  c #0E180C",
"4  c #0C1012",
"5  c #0D1113",
"6  c #0E1113",
"7  c #0F1315",
"8  c #111518",
"9  c #111618",
"0  c #12171A",
"q  c #151A1E",
"w  c #1B1C1C",
"e  c #261D09",
"r  c #261E09",
"t  c #13280E",
"y  c #192124",
"u  c #1A2226",
"i  c #1B2226",
"p  c #1D252A",
"a  c gray13",
"s  c #232D32",
"d  c #671C17",
"f  c #37662D",
"g  c #3A6C2F",
"h  c #396232",
"j  c #3D7232",
"k  c #417936",
"l  c #437B37",
"z  c #437C37",
"x  c #44753C",
"c  c #447D38",
"v  c #2F3C43",
"b  c #323D44",
"n  c #303E45",
"m  c #323E44",
"M  c #313E46",
"N  c #324047",
"B  c #334148",
"V  c #34434A",
"C  c #35444C",
"Z  c #36454C",
"A  c #36454D",
"S  c #37454D",
"D  c #394850",
"F  c #43525C",
"G  c #4D606B",
"H  c #51646E",
"J  c #5D727E",
"K  c #787B7E",
"L  c #872520",
"P  c #AB2F29",
"I  c #A92F2A",
"U  c #B5352C",
"Y  c #B6352C",
"T  c #B7352C",
"R  c #EA453D",
"E  c #EC453D",
"W  c #ED453D",
"Q  c #549348",
"!  c #559449",
"~  c #56964A",
"^  c #5D9D52",
"/  c #5E9F53",
"(  c #60A154",
")  c #60A155",
"_  c #65AA59",
"`  c #66AB5A",
"'  c #66AC5A",
"]  c #67AC5B",
"[  c #67AD5B",
"{  c #F4C242",
"}  c #F6C342",
"|  c #627885",
" . c #627985",
".. c #647B87",
"X. c #647B88",
"o. c #657C88",
"O. c #657C89",
"+. c gray57",
"@. c gray72",
"#. c #D2D9DC",
"$. c #FBFBFB",
"%. c #FDFDFD",
"&. c white",
/* pixels */
"                                                                                                ",
"  . .                                       . . . .                                       . .   ",
"  . . . .                                 . . O O . .                                 . . . .   ",
"  . O.J . . .                         . . . S A O.O.. . .                         . . . / [ .   ",
"  . O.O.O.S . . .                 . . . A A A A O.X.O.O.. . .                 . . . h [ ] [ .   ",
"  . O.O.O.O.O.6 . . .         . . . C S A A A A X.O.X.O.. . . . .         . . . 3 _ [ ] [ [ .   ",
"  . O.O.O.O.X.O.X.. . .   . . . S S S C A A A A O.X.O.O.O.. ) [ . . .   . . . [ [ [ ] [ [ [ .   ",
"  . O.o.O.X.O.X.O.O.O.. . . N A S S C S A A A A X.O.O.O.O.. . [ [ ^ . . . ] [ _ [ ] [ [ [ [ .   ",
"  . O.O.X.O.X.O.X.O.O.O.X.A A A A A A A A A A A O.O.O.O.O.. . [ ] [ _ [ _ [ ] [ [ [ [ [ [ [ .   ",
"  . O.X.O.X.O.X.O.O.O.O.X.S A A A A A A A A A A O.O.O.O.O.O.. [ [ ] [ ] [ ] [ ] [ [ [ [ [ [ .   ",
"  . X.O.X.O...O.o.O.O.O.X.S S S A A A A A A A A O.O.O.O.O.O.. [ _ [ _ [ _ [ ] [ [ [ [ [ [ ~ .   ",
"  . O.X.O.X.O.o.O.O.O.O.X.S C S A A A A A A A A O.O.O.O.O.O.. x [ ] [ ] [ ] [ [ [ [ [ [ z z .   ",
"  . X.O.X.O.O.O.O.O.O.O.O.S S S A A A A S C S A O.O.O.O.O.O.. [ [ [ _ [ [ [ [ [ [ [ [ z z g .   ",
"  . O.X.O.O.O.O.. . . . . . . . A A A A C S C A O.O.O.O.O.H . [ [ _ [ [ _ z z z l [ Q z . . .   ",
"  . X.O.o.O.O.O.O.. . { { . . S A A A A S C S S O.O.O.O.X.. . z _ [ [ [ l z z z z z z . . v .   ",
"  . O.O.O.O.O.O.O.X.. r r . S S A A A A C S S S O.o.O.X.O.* . l c ] [ [ . . . . . z . . S S .   ",
"  . o.O.O.O.O.O.O.O.0 . . : S S A A A A A A A A X.X.X.O.X.O.O . z [ [ ~ . u u y . . . N C S .   ",
"  . O.O.O.O.O.O.O.O.X.. . S C S A A A A A A A A O.X.O.X.O.X.O.. . z [ f . S S C S . . S S S .   ",
"  . O.O.O.O.O.o.O...O...O.S S S A A A A A A A A X.O.X.O.O.O.O.O.. & z . . S S S S C S S S S .   ",
"  . O.O.O.O.O.O...M m M M u u S A A A A A A A A O.X.O.X.O.O.O.O.6 . j . V S S C u S S S S . .   ",
"  . O.O.O.O.O.X.. . . . . . . . A A A A A A A A X.O.o.O.O.O.O.O.O.. . . C S S S . . . . . . .   ",
"  . O.O.O.O...O.X.. . { { . . S A A A A A A A A O...O.O.O.O.O.O.O.O.. S S S S S . z t . z z .   ",
"  . O.O.O.X.O.X.O.o.. . . . C S A A A A A A A A X.. O.O.. O.O.O.O.O.O.S . . . . . z [ [ [ [ .   ",
"  . O.O.X.O.X.O...O.O.. . C S C A A A A A A A A O.. O.O.. O.O.O.O.O.X.. . l 2 . . z [ [ [ [ .   ",
"  . O.X.O.X.O.X.O.O.O.6 6 S S S A A A A S S S S O.. O.O.. O.O.O.O.X.. . c l [ ] [ ] [ [ [ [ .   ",
"  . X.O.X.O.X.O.O.O.O.O.O.S S S A A A A S S . . . . O.O.. . . . X.O.. < l ] ] [ [ [ [ [ [ [ .   ",
"  . O.X.O.X.O.O.O.O.. . . . S S A A A A C S O.O.O.O.O.O.O.O.O.O.O.X.. l ] ] ] [ [ [ [ [ _ [ .   ",
"  . X.O.X.X...... . . . . . . . C A A C S C O.O.O.O.O.O.O.O...O.X.O.. l ] ] ] ] [ [ [ ] [ [ .   ",
"  . O.O.O.o.+ . . W W W E Y Y . . O S S C S . . . . O.O.. . . . O.X.. c [ [ [ [ [ [ ] [ [ [ .   ",
"  . ..O.O.8 . L E E W E E Y Y Y d . * S S C S S O.. O.O.. O.O.O.X.O.. 2 [ [ [ [ [ ] [ _ [ _ .   ",
"  . O.O.O.. % E E E E E R T Y Y Y + . S S S S S O.. O.... X.O...O.O.. . [ [ [ [ [ [ _ [ [ [ .   ",
"  . O.O.. . W E E E E P P Y Y Y Y Y . . S S u . . . O.O.. O.X.O.O.O.O.. . [ [ ] [ _ [ [ [ [ .   ",
"  . O.O.. , E E E E . . . . Y Y T T > . S S G O.O.X.O.X.. X.O.O.O.O.O.M . . . . ) [ _ [ _ [ .   ",
"  . O.O.. E E E W . . S S . . Y T T T . S S G O.X.O.X.O.. O.O.O.O.O.O.S . . . . . . [ [ [ [ .   ",
"  . O.O.. . . . . . u S S u . . . . . . S S u . . . O.X.. O.O.O.O.O.O.S A A A A V . . [ [ [ .   ",
"  . O.O.. &.&.$.&.. . S S . . #.#.#.#.+ S S S S X.. X.O.. O.O.O.O.X.X.S A A A A S . t [ [ [ .   ",
"  . O.O.. a $.&.$.&.. . . . #.#.#.#.w + C S C S O.. O.O.. O.O.O.O.O.X.S S C A A S . z [ [ [ .   ",
"  . O.O.. . &.$.&.$.&.@.@.#.#.#.#.#.+ + A C S C X.. o.O.. . . . O.O.X.S A A A A u . z [ [ [ .   ",
"  . O.O.X.. - &.$.&.&.&.&.#.#.#.#.- . A A A S S O.O.O.O.O.O.O.O.O.O.X.S A A . . . . z [ [ [ .   ",
"  . O.X.O.0 . +.&.&.&.&.&.#.#.#.o.. = A A A S S O.O.O.O.O.O.O.O.O...O.S A . . f z z c [ [ [ .   ",
"  . . O.X.O.# . . &.&.&.&.#.#.. . . S S C S 4 . . q O.O.O.O.O.O.X.X.X.S S . < z [ [ [ [ [ . .   ",
"    . . . X.X.... . . . . . . . V S S S s . . . . . . F O.O.O.X.X.X.X.S S . z [ [ [ [ . . .     ",
"        . . . O.O.O.. . . . S S S S S . . .         . . . ..X.O.X.O.X.S S . z [ [ . . .         ",
"            . . . O.O.O.O.S S S S . . .                 . . . X.O.X.O.S S . c . . .             ",
"              . . . 7 O.O.S S . . .                         . . . O.O.S S . . . .               ",
"                  . . . D . . .                                 . . . p . . .                   ",
"                      . . .                                         . . .                       ",
"                                                                                                "
};
